<svg xmlns="http://www.w3.org/2000/svg" viewBox="0 0 200 200" width="100" height="100">
  <!-- Body/Torso and Arms -->
  <path d="M 100 175 C 84 165 64 128 32 106 C 24 101 22 93 30 88 C 42 80 72 96 84 104 C 88 107 92 105 92 100 C 90 85 100 85 108 100 C 108 105 112 107 116 104 C 128 96 158 80 170 88 C 178 93 176 101 168 106 C 136 128 116 165 100 175 Z" fill="#0d9488" stroke="#0f766e" stroke-width="2"/>
  
  <!-- Star on Torso -->
  <path d="M 100 115 L 104.4 125.9 L 116.2 126.8 L 107.1 134.3 L 110 145.8 L 100 139.5 L 90 145.8 L 92.9 134.3 L 83.8 126.8 L 95.6 125.9 Z" fill="#ffffff" stroke="#0f766e" stroke-width="2.5" stroke-linejoin="round"/>

  <!-- Head -->
  <circle cx="100" cy="78" r="16" fill="#0d9488" stroke="#0f766e" stroke-width="2"/>

  <!-- Graduation Cap -->
  <!-- Cap mortarboard (diamond) -->
  <path d="M 100 12 L 165 34 L 100 56 L 35 34 Z" fill="#0d9488" stroke="#0f766e" stroke-width="2"/>
  
  <!-- Cap band -->
  <path d="M 74 45 Q 100 56 126 45 L 122 57 Q 100 68 78 57 Z" fill="#0f766e"/>
  
  <!-- Tassel -->
  <path d="M 100 34 Q 148 34 148 52" fill="none" stroke="#eab308" stroke-width="2.5"/>
  <path d="M 144 52 L 152 52 L 150 64 L 146 64 Z" fill="#eab308"/>
</svg>
